<?xml version="1.0" encoding="UTF-8"?>
<svg xmlns="http://www.w3.org/2000/svg" xmlns:xlink="http://www.w3.org/1999/xlink" viewBox="0 0 1920 1660">
  <defs>
    <clipPath id="clippath">
      <rect y="290" width="1920" height="1080" style="fill: none;"/>
    </clipPath>
  </defs>
  <g id="Layer_2" data-name="Layer 2">
    <rect x="134.44" width="1660" height="1660" style="fill: #0d6b45;"/>
  </g>
  <g id="Layer_4" data-name="Layer 4">
    <g style="clip-path: url(#clippath);">
      <g>
        <g>
          <path d="M228.53,1530.49s120.26,1.21,187.04-.52c6.06-.16,25.93-147.92,25.93-147.92,0,0-.37,152.23,8.5,152.23,44.42,0,171.48-3.79,171.48-3.79,0,0,5.77-130.89,0-158.37-9.24-44.01-28.93-124.7-28.93-124.7,2.43,1.28-53.04,1.58-128.38,2.4-130.21,1.42-154.22,2.17-154.22,2.17,0,0-14.01,44.83-31.08,83.64-27.29,62.05-50.34,194.86-50.34,194.86h0Z" style="fill: #2550a1;"/>
          <path d="M610.25,474.96c6.48,28.18-2.05,59.52-16.23,115.94-13.54,53.88-18.66,57.07-10.87,147.73,0,0-24.64-16.18-44.8-61-14.33-31.84-11.5-83.09-15.85-135.71-4.03-48.63-101.32-51.64-101.32-67.99,0-47.37,28.33-75.84,75.7-75.84s100.65,21.57,113.37,76.87h0Z" style="fill: #912d0b;"/>
          <path d="M324.13,580.97c.47,16.33,3.69,42.38,3.33,50.98l181.3,75.85,26.04-51.57c28.1-50.15,45.31-64.29,47.99-114.18,1.94-36.22-3.86-60.46-25.3-80.4-48.73-45.33-84.07-41.99-96.2-35.93h0c-35.23-19.82-86.97-10.04-114.53,23.55l-22.63,131.7h0Z" style="fill: #912d0b;"/>
          <path d="M499.16,535.59c-.65-1.82-1.39-3.62-2.22-5.39.25.49,1.16,2.34,2.22,5.39Z" style="fill: #7a2912;"/>
          <path d="M502.61,551.34c1.24,10.77.86,25.29-4.53,42.73,2.18-7.4,6.43-24.74,4.53-42.73Z" style="fill: #7a2912;"/>
          <path d="M557.06,590.9c-6.14,41.81-34.08,90.95-48.29,116.89-55.29,8.87-6.96-116.19-11.89-109.99,4.85-6.29,15.54-16.36,23.31-18.63,12.39-13.65,27.1-33.75,36.87-47.63,0,0,3.27,27.62,0,59.37h0Z" style="fill: #62251a;"/>
          <g>
            <path d="M399.47,783.8l1.62-39.39,102-97.91,3.27-4.17,9.74-13.81-.73,9.59c-3.27,42.87-12.3,82.33.38,126.33h0l77.39,33.52-76.42,69.46-57.17,17.58-152.61-63.35,86.06-35.34,6.47-2.51h0Z" style="fill: #fdbba8;"/>
            <path d="M320.89,625.72c-4.5,51.43,12.12,114.74,72.92,118.79,113.59,0,127.93-99.02,121.69-167.63-5.2-57.24-58.15-147.75-131.09-115.85-35.5,15.53-59.63,45.81-61.49,84.51-.61,12.71.94,32.74.94,32.74,0,0-1.8,33.97-2.98,47.44h.01Z" style="fill: #fdbba8;"/>
            <path d="M544.73,613.35c-1.85,20.01-7.32,34.99-31.62,32.41-13.13-1.39-22.47-18.44-20.45-38.44,1.61-15.95,11-24.56,27.53-28.15,24.63-5.34,26.4,14.17,24.55,34.18h-.01Z" style="fill: #fdbba8;"/>
            <path d="M523.31,605.99c1.77,3.08,5.88,8.2,1.08,15.77l-1.02,1.58h0l.35-1.7c4.31-6.79-1.81-14.18-2.5-14.42l-12.95,7.67-.37-.63,20.31-14.01c.74-.47,1.9,1.7,1.24,2.09l-6.14,3.63v.02Z" style="fill: #a2550c; isolation: isolate; opacity: .2;"/>
            <path d="M399.48,783.86s93.28-28.26,112.8-126.79h0s-22.81,87.44-111.19,87.33l-1.61,39.46h0Z" style="fill: #a2550c; isolation: isolate; opacity: .2;"/>
          </g>
          <path d="M496.87,530.07l60.18,1.47c-9.77,13.89-24.49,33.99-36.87,47.63-7.77,2.27-18.46,12.34-23.31,18.63l1.2-3.73c5.39-17.44,6.2-32.01,4.53-42.73-1.33-8.51-5.73-21.28-5.73-21.28h0Z" style="fill: #62251a;"/>
          <path d="M497.02,597.36c.15-.43.28-.86.43-1.27-.17.56-.32.99-.43,1.27Z" style="fill: #912d0b;"/>
          <path d="M499.44,536.46c.25.74.49,1.56.74,2.43-.24-.81-.47-1.63-.74-2.43Z" style="fill: #912d0b;"/>
          <path d="M446.51,530.28c-4.2-1.26-5.85-11.47-5.59-34.2-.82,17.86-4.81,34.24-6.04,34.24-16.96.07-33.85.11-45.52.11-13.82,0-24.89-.57-33.73-1.48-4.18-.05-3.29-24.7-3.29-24.7,0,0-2.73,23.78-3.77,23.83-28.37,1.54-33.25-.73-34.98-3.86-1.87-3.4-.31-25.18,0-31.13,2.56-48.78,69.54-70.21,69.54-70.21l89.24,11.04,59.93,19.87,35.58,62s-4.32,6.5-10.83,15.74l-110.54-1.26h0Z" style="fill: #912d0b;"/>
          <circle cx="309.95" cy="879.83" r="57.14" style="fill: #be4a1a;"/>
          <path d="M301.25,1063.96h0c-32.37-19.87-40.08-55.83-17.36-106.63l21.52-62.52-4.28-86.25,87.35-20.39s-18.1,87.35,63.05,87.61c72.65.24,86.82-92.77,86.82-92.77l97.75,29.65-32.99,188.21h0c1.34,46.9-8.84,97.94-8.27,150.85.49,45.87,13.17,94.84-2.27,96.61,0,0-152.45,25.48-282.61,3.65-19.91-11.42-1.57-37.21-1.3-50.67.79-38.64-7.4-137.36-7.4-137.36h0Z" style="fill: #b8fad6;"/>
          <circle cx="612.24" cy="899.06" r="66.32" style="fill: #b8fad6;"/>
          <path d="M295.94,1106.04l12.71,95.27s15.49-8.59,65.35-26.43c25.97-9.29,13.89-50.08,12.37-78.27-2.15-40,68.57-85.58,68.57-85.58l-88.99,26.33-70.01,68.67h0Z" style="fill: #97f4c9;"/>
          <path d="M374,1157.82c18.57-2.09-6.9-103.64-6.9-103.64l-32.61,22.27s10.55,84.63,39.51,81.37Z" style="fill: #54e9b0;"/>
          <path d="M514.82,646.05l-.35,5.81-7.08-7.78h0s1.94,1.36,7.42,1.97h0Z" style="fill: #a2550c; isolation: isolate; opacity: .2;"/>
          <path d="M534.81,640.7l-.08.11-.17.11c.08-.06.17-.13.25-.21h0Z" style="fill: #fc76a9; isolation: isolate; opacity: .3;"/>
          <path d="M530.84,643.41l3.66-2.44c-1.85,1.54-3.41,2.31-3.66,2.44Z" style="fill: #fc76a9; isolation: isolate; opacity: .3;"/>
          <path d="M541.88,628.81c-.04.23-.1.46-.15.67-1.14,4.98-3.87,8.45-6.33,10.71-.19.19-.4.36-.59.5l4.48-5.26,2.59-6.63h0Z" style="fill: #fc76a9; isolation: isolate; opacity: .3;"/>
          <polygon points="698.78 915.7 776.15 1135.51 678.97 1173.31 560.41 879.83 698.78 915.7" style="fill: #fdbba8;"/>
          <path d="M781.57,1131.88l-163.67-70.81-79.56-278.05s73.9,17.81,97.75,29.65c71.05,35.27,145.48,319.22,145.48,319.22h0Z" style="fill: #b8fad6;"/>
          <path d="M607.48,980.47l-3.12-59.15c-.35-6.67-6.19-11.7-12.83-11.08h0c-5.86.55-10.4,5.35-10.64,11.23l-2.07,52.15,28.67,6.84h0Z" style="fill: #fdbba8;"/>
          <path d="M603.78,1175.6c-.79-4.62-7.1-9.24-8.93-10.24l-.38,6.99c-23.51-46.28-32.63-88.29-33.55-115.69-2.02-59.95,68.07-246.99,68.07-246.99l3.6,1.41-1.9-7.72c-.54-1.47-.99-2.73-3.08-3.31l-41.02-8.37c-3.72-1.67-7.93.42-9.4,4.35,0,0-74.45,193.61-59.03,296.97,7.48,50.12,52.08,133.31,76.94,142.76,3.55,1.35,8.18-2.36,8.68-4.64,4.04-18.38,0-55.53,0-55.53h0Z" style="fill: #101834;"/>
          <g>
            <rect x="347.05" y="874.93" width="162.03" height="84.9" rx="4" ry="4" transform="translate(-503.35 1313.98) rotate(-88.05)" style="fill: #0e1638;"/>
            <path d="M377.07,1047.01c3.82-2.36,6.43-4.3,9.47-5.96,4.83-2.64,24.73-9.81,27.07-10.29,20.28-4.18,22.12-5.66,41.32-19.71l19.3-14.51,13.59-9.43.35-.25c4.11-3.19,5.29-9.01,2.52-13.58-1.76-2.91-4.71-4.66-7.85-4.97-.05-.02-.08-.02-.1-.02-1.74.92,1.86.2,0,0,1.74-.89-1.86-.18,0,0h.02c3.69-1.96,5.55-5.77,5.22-9.52v-.02c0-.56-.14-8.78-7.25-10.23l1.48-.99.14-.09c3.64-2.39,5.27-6.68,4.47-10.71l.08.02s-1.91-9.35-10.79-12.25c-2.76-.91-5.62,1.11-5.75,4.02l-.09,1.97-27.08,13.75c.04.17-.02-.08-.09.13h0c.07-.14.06,0,.05-.05l17.96-16.89,16.67-15.16.67-.77-.03-.05c1.67-1.69,2.66-3.82,2.9-6.05.11-.75.11-1.51.05-2.24-.12-1.12-.39-2.17-.87-3.11-.42-1.14-1.08-2.16-1.99-3.06-4-4.14-9.87-3.89-14.7-.26,0,0-67.48,54.48-73.1,52.14-3.3-1.37-2.93-18.42-2.76-22.23.66-15.22,3.72-23.8-3.55-25.45-7.18-1.63-10.79,5.67-11.63,9.1-3.24,13.15-7.43,23.03-9.76,33.71-5.05,23.16-3.48,27.15-13.51,37.83l27.58,65.19h0Z" style="fill: #fdbba8;"/>
            <circle cx="304.09" cy="889.52" r="56.91" style="fill: #fdbba8;"/>
            <path d="M277.69,1100.31l79.33-189.88-92.58-40.79-8.9-5.07c-33.39,71.44-52.63,133.9-80.46,207.69l102.61,28.05Z" style="fill: #fdbba8;"/>
            <path d="M256.69,1132.55c29.03-19.74,156.92-101.8,156.92-101.8l-64.12-48.94-177.95,107.16,85.15,43.58Z" style="fill: #fdbba8;"/>
            <path d="M480.7,948.47l-30.49,16.49,2.66-.83,31.83-13.64s-.81-.7-1.29-1c-.69-.42-2.71-1.02-2.71-1.02h0Z" style="fill: #eca88c;"/>
            <path d="M482.76,968.28l-30.98,17.18,3.57-1.82,30.73-14.47s-1.14-.46-1.55-.56c-.45-.11-1.77-.32-1.77-.32h0Z" style="fill: #eca88c;"/>
            <circle cx="225.67" cy="1089.51" r="53.66" transform="translate(-106.26 27.54) rotate(-5.65)" style="fill: #fdbba8;"/>
          </g>
          <circle cx="313.07" cy="864.16" r="57.14" style="fill: #b8fad6;"/>
          <path d="M260.97,840.68l104.98,50.51h0c-6.09,30.03-28.7,76.63-46.49,109.16l-151.21,97.88c29.25-126.89,92.72-257.55,92.72-257.55h0Z" style="fill: #b8fad6;"/>
          <circle cx="222.59" cy="1112.9" r="56.28" style="fill: #b8fad6;"/>
          <rect x="537.6" y="911.54" width="28.73" height="70.7" rx="9.22" ry="9.22" transform="translate(-531.97 1109.25) rotate(-68.28)" style="fill: #fdbba8;"/>
          <rect x="530.78" y="937.17" width="28.73" height="72.44" rx="9.22" ry="9.22" transform="translate(-531.32 1266.48) rotate(-75.98)" style="fill: #fdbba8;"/>
          <path d="M553.65,1015.36l-35.75-8.93c-6.82-1.7-11.02-8.57-9.42-15.42h0c1.63-7,8.68-11.31,15.66-9.57l35.75,8.93c6.82,1.7,11.02,8.57,9.42,15.42h0c-1.63,7-8.68,11.31-15.66,9.57Z" style="fill: #fdbba8;"/>
          <path d="M544.28,1036.99l-28.27-7.06c-6.76-1.69-10.92-8.49-9.35-15.28h0c1.61-6.95,8.61-11.24,15.54-9.51l28.27,7.06c6.76,1.69,10.92,8.49,9.35,15.28h0c-1.61,6.95-8.61,11.24-15.54,9.51Z" style="fill: #fdbba8;"/>
          <path d="M576.84,941.28s4.2,1.91,9.74,5.57c7.72,5.1,18.04,13.58,23.26,25,6.54,14.32,16,31.1,16,31.1l-32.68,45.44s-12.3,2.9-29.19-1.39c-15.3-3.88-51.21-18.4-51.21-18.4l64.1-87.33h-.02Z" style="fill: #fdbba8;"/>
          <polygon points="574.27 1045.13 686.96 1187.32 761.42 1112.34 625.83 1002.96 574.27 1045.13" style="fill: #fdbba8;"/>
          <circle cx="725.75" cy="1151.72" r="52.65" style="fill: #fdbba8;"/>
          <polygon points="538.84 916.54 523.23 928.15 536.24 925.65 538.84 916.54" style="fill: #fdbba8;"/>
          <path d="M324.44,991.69l-133.49,53.49,19.66,122.72s100.38,25.02,163.38-10.07c-48.82-28.51-45.89-163.19-45.89-163.19l3.74-2.25-2.34-.83c-1.65-.59-3.46-.54-5.08.14h.02Z" style="fill: #b8fad6;"/>
          <path d="M583.41,1056.66s-16.18,23.58-4.59,68.09c0,0,14.33-9.55,25.95-41.13l-21.36-26.96Z" style="fill: #b8fad6;"/>
          <path d="M583.41,1056.66s-31.72,65.51-23.25,103.22c0,0,40.01-8.16,48.77-71.03l-25.52-32.2h0Z" style="fill: #54e9b0;"/>
          <path d="M627.31,991.88l-4.56,5.48,3.08,5.6s-32.25,132.49-65.68,156.93c21.63,36.92,161.2,46.2,161.2,46.2l34.53-107.02-122.11-106.81c-2.57-2.24-3.66-2.31-6.47-.38h0Z" style="fill: #b8fad6;"/>
          <circle cx="725.75" cy="1147.99" r="58.09" style="fill: #b8fad6;"/>
          <path d="M267.35,1013.6s-.04-16.95,6.65-34.3c7.56-19.63,30.09-84.48,30.09-84.48l-58.75,129.57,22.01-10.78h0Z" style="fill: #97f4c9;"/>
          <path d="M488.84,657.07c0-14.35,11.63-25.98,25.98-25.98s25.98,11.63,25.98,25.98h-51.96Z" style="fill: #ff80ab;"/>
          <path d="M441.51,418.01c5.97-6.83,19.23-12.98,19.23-12.98,0,0,67.18,7.11,92.29,52.57,0,0-42.12-40.97-91.74-31.88,0,0-8.3-6.31-19.79-7.71h0Z" style="fill: #7a2912;"/>
          <path d="M592.77,1248.31c1.8,105.1-134.97,281.22-134.97,281.22l163.68.96-1.71-166.4-27-115.78h0Z" style="fill: #1f4183;"/>
          <path d="M541.22,927.1l-4.44-1.85,2.28-8.87-14.41,10.72s4.43-2.08,16.57,0h0Z" style="fill: #eca88c;"/>
          <path d="M512.75,959.04l9.43-10,7.89,4.53-.26,1.18s-5.16-.72-8.95.26c-2.19.57-8.12,4.02-8.12,4.02h.01Z" style="fill: #eca88c;"/>
          <path d="M593.39,913.19s-1.79,33.67,7.05,45.13l-16.79-13.32,9.74-31.81Z" style="fill: #eca88c;"/>
          <path d="M518.4,981.34l42.51,6.97-48.16-4.23s1.79-2.1,5.66-2.74h-.01Z" style="fill: #eca88c;"/>
          <path d="M515.15,1005.39s-3.12.97-4.27,2.46l42.14,4.82-37.87-7.28Z" style="fill: #eca88c;"/>
        </g>
        <g>
          <circle cx="560.15" cy="783.01" r="68.13" style="fill: #fff;"/>
          <g>
            <polygon points="517.02 825.85 493.96 848.75 529.21 838.12 517.02 825.85" style="fill: #fff;"/>
            <polygon points="517.02 825.85 493.96 848.75 504.83 813.58 517.02 825.85" style="fill: #fff;"/>
          </g>
          <path d="M576.81,764.89c-5.23-2.44-10.96-3.59-16.72-3.36-5.76-.23-11.49.93-16.72,3.36l-12.17-12.14c-.26-.24-.59-.39-.94-.45s-.71-.02-1.03.12c-.33.14-.61.36-.81.65s-.32.63-.33.99v36.02c.84,19.8,22.17,24.16,29.58,25.06,1.68.22,3.39.22,5.08,0,7.41-.9,28.71-5.29,29.55-25.1v-35.99c0-.36-.12-.7-.32-1s-.48-.53-.81-.67-.69-.18-1.04-.13c-.35.06-.68.21-.94.45l-12.36,12.17-.02.02Z" style="fill: #0d6b45;"/>
        </g>
        <g>
          <g>
            <path d="M1348.22,682.42c-22.3-46.43,8.15-81.64,29.53-126.12,0,0,1.82-5.7,21.33-52.86,24.26-58.63,85.57-79.59,97.7-73.52h0c48.52-16.17,94.2-2.38,102.68,46.09,4.6,26.26,39.17,37.25,33.08,73.02,0,0,1.58,16.85,14.53,41.69,7.55,14.48,17.78,47.81,18.34,56.4,1.63,24.81,4.91,60.41-24.71,87.99,47.41,60.53-6.31,110.39-6.31,110.39l-279.84-4.51s-36.72-26.56-38.32-74.04c-1.58-46.78,31.98-84.52,31.98-84.52h.01Z" style="fill: #ffb9d0;"/>
            <g>
              <path d="M1543.23,788.94v-40.85l-101.98-97.89-3.27-4.17-9.74-13.81.73,9.59c3.27,42.87,3.07,103.64-.69,146.46l-.04.66-80.02,36.38h289.15l-87.67-33.87-6.47-2.51h0Z" style="fill: #a85e4d;"/>
              <path d="M1623.79,655.56c.88,51.61-24.41,92.64-73.28,92.63-110.98.48-127.9-99-121.67-167.6,5.2-57.23,58.14-147.72,131.07-115.83,35.5,15.53,59.62,45.8,61.48,84.5.61,12.7-.94,32.73-.94,32.73l3.34,73.57h0Z" style="fill: #a85e4d;"/>
              <path d="M1399.62,617.06c1.85,20.01,7.31,34.98,31.62,32.4,13.13-1.39,22.46-18.44,20.45-38.43-1.61-15.95-11-24.56-27.52-28.14-24.63-5.34-26.4,14.17-24.55,34.17h0Z" style="fill: #a85e4d;"/>
              <path d="M1421.04,609.69c-1.77,3.08-5.88,8.2-1.08,15.77l1.02,1.58h0l-.35-1.7c-4.31-6.79,1.81-14.18,2.5-14.41l12.95,7.67.37-.63-20.31-14c-.74-.47-1.9,1.7-1.24,2.09l6.13,3.63h.01Z" style="fill: #9f523b;"/>
              <path d="M1543.23,777.88s-88.13-14.65-107.65-113.16h0s19.29,83.47,107.65,83.36v29.8Z" style="fill: #9f523b;"/>
              <path d="M1425.83,680.09c-7.36,0-13.12-8.28-13.12-18.85,0,0-.19-.95,2.01-.96,2.03-.01,2,.96,2,.96,0,8.04,4.17,14.84,9.11,14.84s9.11-6.8,9.11-14.84-4.17-14.84-9.11-14.84c0,0-1.61.05-1.6-2,.02-2.01,1.6-2,1.6-2,7.36,0,13.12,8.28,13.12,18.85s-5.76,18.85-13.12,18.85h0Z" style="fill: #ffe87a;"/>
            </g>
            <path d="M1608.73,469.15l3.84,7.25c3.25,6.13,6.05,12.49,8.38,19.03l19.76,73.1s-26.56-4.26-82.38-40.43c-33.43-21.66-35.28-30.04-59.53-44.2,0,0-58.91,87.76-46.84,123.13-10.69-17.4-18.23-21.04-23.72-23.1l-42.97-50.3,27.22-76.1,59.93-19.87,103.44,1.1,32.87,30.39h0Z" style="fill: #ffb9d0;"/>
            <polygon points="1663.97 835.01 1748.99 1051.46 1653.48 1073.73 1571.3 852.39 1663.97 835.01" style="fill: #a85e4d;"/>
            <circle cx="1702.9" cy="1072.82" r="50.79" style="fill: #a85e4d;"/>
            <path d="M1646.01,1041.47l9.26-105.2,32.34-8.15s.36,43.13-16.15,82.71c-4.91,11.77-4.65,18.98-4.65,26.26l-20.8,4.38h0Z" style="fill: #9f523b;"/>
            <path d="M1622.55,1239.84s46.94,174.3,65.46,320.33h-175.42c-13.33-38.11-29.31-160.99-29.31-160.99,0,0,1.49,131.49-1.22,160.99h-133.84l-3.97-282.6,278.3-37.73h0Z" style="fill: #101834;"/>
            <path d="M1641.22,1271.5s-5.49-52.68-7.88-69.83c-7.49-53.59-.31-125.32,3.76-164.13h0c21.94-17.95,45.78-61.45,25.61-106.56l-18.17-49.15-6.5-67.99-94.81-35.96h0c-21.19,19.14-49.48,24.67-76.02,14.11l-37.97-14.33-103.33,45.6,31.58,144.92h0c-2.22,77.75,12.54,155.89,4.43,233.25l-17.68,76.14h0c-1.1,4.13-.07,8.54,2.75,11.76h0c2.42,2.76,5.91,4.36,9.58,4.38l17.92,1.95c95.23,10.35,140.77,12.76,234.55-6.78,6.86-1.43,24.01-7.41,24.01-7.41l1.77,6.64,5.43-7.15c1.41-2.95,1.75-6.3.95-9.47h.02Z" style="fill: #fd80a9;"/>
            <path d="M1630.07,1146.16l.51,24.31c-207.62,9.91-153.8,133.87-153.8,133.87l-3.03-148.56,156.33-9.63h0Z" style="fill: #ff6f8d;"/>
            <path d="M1498.8,483.89s20.11,20.81,37.08,32.88c14.17,10.08,85.26,53.64,85.26,53.64l.39-8.12s-56.55-26.27-84.77-49.49c0,0-28.79-24.55-37.96-28.91Z" style="fill: #9a3709; isolation: isolate; opacity: .3;"/>
            <path d="M1409.54,644.4l.08.11.17.11c-.08-.06-.17-.13-.25-.21h0Z" style="fill: #fc76a9; isolation: isolate; opacity: .3;"/>
            <path d="M1413.52,647.11l-3.66-2.44c1.85,1.54,3.41,2.31,3.66,2.44Z" style="fill: #fc76a9; isolation: isolate; opacity: .3;"/>
            <path d="M1402.48,632.52c.04.23.1.46.15.67,1.14,4.98,3.87,8.45,6.33,10.7.19.19.4.36.59.5l-4.48-5.26-2.59-6.62h0Z" style="fill: #fc76a9; isolation: isolate; opacity: .3;"/>
            <path d="M1707.74,916.15l-18.04-43.99c-5.52-12.76-14.55-33.13-32.47-46.85-3.63-2.78-19.19-11.47-19.19-11.47l-73.77,51.04h0c5.41,26.67,12.88,55.02,21.15,83.69h21.53c32,0,69.98-11.74,96.4-29.78l4.39-2.64h0Z" style="fill: #fd80a9;"/>
            <polygon points="1671.09 900.58 1656.22 895.26 1500.23 895.26 1514.42 902.77 1671.09 900.58" style="fill: #196cff;"/>
            <polygon points="1652.26 893.84 1663.53 897.87 1506.53 898.59 1497.15 894.07 1652.26 893.84" style="fill: #00db91;"/>
            <path d="M1454.2,1024.71s13.45-7.76,16.31-7.86c1.7-.06,4.86.4,6.48,2.1,1.62,1.71.82,8.77.82,8.77l-23.6-3.02h-.01Z" style="fill: #9f523b;"/>
            <polygon points="1497.15 894.07 1469.06 1165.89 1451.96 1160.64 1485.46 889.56 1497.15 894.07" style="fill: #ffb9d0;"/>
            <polygon points="1640.94 888.95 1652.26 893.84 1497.15 894.07 1485.46 889.56 1640.94 888.95" style="fill: #ffb9d0;"/>
            <polygon points="1626.62 1166.86 1483.02 1170.47 1465.81 1166.86 1506.53 898.59 1514.42 902.77 1671.09 900.58 1626.62 1166.86" style="fill: #196cff;"/>
            <polygon points="1506.53 898.59 1474.56 1168.7 1462.77 1166.23 1497.15 894.07 1506.53 898.59" style="fill: #00db91;"/>
            <path d="M1580.68,1111.44c-8.86-.67-24.45-1.88-24.68-1.85-23.16,5.88-30.66,4.88-59.17,2.43l-26.21-3.58-17.05-2.64-.44-.08c-5.31-1.11-9.07-6.04-8.56-11.58.32-3.53,2.29-6.52,5.1-8.24.04-.04.06-.05.09-.06,2.04.07-1.65,1.04,0,0-2.03-.04,1.66-1.01,0,0h-.02c-4.35-.15-7.84-2.86-9.24-6.54v-.02c-.27-.53-3.88-8.29,2.11-12.89l.89.19-.02.04s-4.58-3.6-2.72-13.02c1.79-9.11,11.9-9.26,11.9-9.26l19.57,3.04,3.27.49s-17.78-1.09-23.35-3.85c-3.28-1.63-4.74-10.21-2.99-13.96,2.87-6.17,8.7-7.38,15.48-6.35l22.32,2.85,3.43-2.75c4.45-3.57,10.01-4.88,15.76-4.94,18.99-.2,37.44-.86,44.56,3.02,22.9,12.49,17.94,10.3,30.13,15.86,18.67,8.51,15.65,6.44,15.65,6.44l-15.82,67.25h.01Z" style="fill: #9f523b;"/>
            <path d="M1707.74,916.15s-1.4,4.79-7.65,10.81l-1.97-4.99,9.62-5.82Z" style="fill: #fd80a9;"/>
            <polygon points="1369.11 1010.51 1361.04 1070.93 1364 1114 1378.07 1010.51 1369.11 1010.51" style="fill: #fd403d; isolation: isolate; opacity: .3;"/>
            <path d="M1374.98,557.17c-.44-.69-.66-1.49-.67-2.31-.73-96.56,54.99-139.41,130.42-139.41s112.73,46.12,123.93,101.92c0,0-142.97,52.15-196.54,43.95-33.59-5.14-48.2-5.79-54.13-5.68-.77,1.98-1.32,2.89-1.32,2.89-.62.04-1.24-.68-1.68-1.38v.02Z" style="fill: #196cff;"/>
            <path d="M1432.11,561.34s64.31,10.34,114.9,13.33c48.8,2.88,135.71.32,128.78-25.64-5.41-20.28-47.13-31.64-47.13-31.64l-196.54,43.95h-.01Z" style="fill: #196cff;"/>
            <path d="M1483.5,411.31l17.51-.81c4.16-.19,7.69,3.03,7.88,7.18l.19,4.21-32.58,1.5-.19-4.21c-.19-4.16,3.03-7.69,7.18-7.88h0Z" style="fill: #196cff;"/>
            <path d="M1628.65,517.39s-10.46-1.67-53.64,5.18c-48.81,7.75-87.73,16.92-87.73,16.92,0,0,159.93-93.63,54.04-119.89,0,0,73.16,11.99,87.33,97.79h0Z" style="fill: #175dda;"/>
            <path d="M1211.55,1060.31s151.1,21.62,262.19,33.11l-125.53,13.84-136.67-46.95h.01Z" style="fill: #e6e6e6;"/>
            <path d="M1473.75,1093.43s-112.38.92-148.89-4.77c-67.46-10.51-113.3-28.34-113.3-28.34v292.76c0,11.85,5.93,22.9,15.8,29.47,19.55,13.03,56.52,32.41,106.87,35.55,47.07,2.94,89.81.21,116.05-2.37,15.24-1.5,26.79-14.43,26.62-29.74l-3.14-292.56h-.01Z" style="fill: #fff;"/>
            <g>
              <circle cx="1350.62" cy="877.83" r="56.91" style="fill: #a85e4d;"/>
              <path d="M1269.63,1108.16l114.02,5.8,23.67-231.27-112.86-14.08h0c-11.5,78.02-20,160.84-24.83,239.56h0Z" style="fill: #a85e4d;"/>
            </g>
            <path d="M1255.64,1085.74l-23.05-3.9c.06-.37,6.47-38.12,16.85-86.48,13.98-65.12,29.41-117.94,43.35-156.16l23.4-6.4c-32.43,88.87-60.3,251.45-60.55,252.93h0Z" style="fill: #fff;"/>
            <path d="M1400.98,1001.09l16.18-115.28-79.67-71.97h0c-60.5,35.29-72.36,110.53-81.81,155.72h0c38.88,20.71,82.25,31.54,126.3,31.54h19Z" style="fill: #fd80a9;"/>
            <path d="M1255.68,969.56s1.17,9.93,6.53,16.68c5.6,7.05,16.74,9.17,16.74,9.17l3.28-13.84-26.56-12.01h.01Z" style="fill: #fd80a9;"/>
            <path d="M1401.53,1101.76c0-.69-.54-69.4-9.96-137.89-11.52-83.76-31.95-133.06-56.06-135.25-24.29-2.22-35.47,18.71-35.47,18.71l-12.49,19.29c0-26.5,15.41-61.1,49.78-57.97,36.22,3.3,60.47,53.23,74.12,152.66,9.58,69.77,10.12,139.63,10.12,140.33l-20.05.12h.01Z" style="fill: #fff;"/>
            <path d="M1433.09,1096.18c0-.67-.17-68.15-13.38-135.07-11.55-58.53-32.91-129.92-81.23-131.98l-3.29-20.63c28.96,1.24,55,16.89,73.99,49.58,14.13,24.34,25.42,57.58,33.53,98.81,13.61,69.13,13.77,136.46,13.77,139.3h-23.39Z" style="fill: #fff;"/>
            <path d="M1229.53,1105.67s41.03,14.3,104.68,20.91c40.95,4.25,94.26,7.3,111.84,8.25,3.32.18,5.91,2.92,5.91,6.24v237.85c0,6.25-4.96,11.38-11.21,11.58-26.08.83-90.45,2.28-114.83-2.59-62.61-12.51-101.17-32.58-101.17-32.58l4.79-249.64v-.02Z" style="fill: #ffb9d0;"/>
            <polygon points="1592.3 1046.08 1693.78 1022.86 1696.6 1123.21 1595.52 1113.42 1592.3 1046.08" style="fill: #a85e4d;"/>
            <path d="M1480.88,1109.71l79.42-10.16,41.65-55.49,12.78-3.13s-19.27,64.24,23.94,76.65l-43.15-4.18-39.52-3.83s-21.12,4.77-33.3,4.31-29.34-2.25-41.82-4.18h0Z" style="fill: #9f523b;"/>
            <g>
              <rect x="1481.66" y="969.67" width="156.18" height="81.84" rx="4" ry="4" transform="translate(56.17 2103.01) rotate(-68.94)" style="fill: #0e1638;"/>
              <path d="M1555.88,1014.68l-34.6,11.05s.3-3.71,1.42-8.97c1.17-5.53,7.52-22.28,7.52-22.28,0,0,3.45-13.6-5.73-16.12-6.25-1.71-9.19,1.85-10.55,3.66-8.31,11.08-11.4,24.27-18.43,34.22-12.64,17.91-15.02,24.79-27.24,26.85-16.27,2.74-36.36,5.36-36.36,5.36l33.34,68.84c4.22-.95,14.84-7.73,18.07-8.56,5.23-1.35,8.7-1.11,8.91-1.11,21.91,2.85,36.94.75,62.85-4.64l22.16-7.12,15.36-4.3.39-.12c4.75-1.61,7.66-6.54,6.58-11.57-.68-3.21-2.82-5.73-5.59-7.01-.04-.03-.06-.04-.09-.05-1.87.29,1.63.77,0,0,1.86-.26-1.63-.75,0,0h.02c3.98-.61,6.88-3.49,7.76-7.02v-.02c.18-.51,2.65-8.04-3.36-11.6l1.66-.43.15-.03c4.07-1.02,6.91-4.42,7.45-8.34h0s1.27-9.08-5.9-14.52c-2.22-1.7-5.47-.76-6.51,1.85l-.71,1.77-29,3.98c-.01.17,0-.08-.13.08h0c.11-.11.06.02.06-.03l21.69-9.72,19.97-8.54.85-.49v-.05c2.04-1.02,3.61-2.64,4.54-4.6.33-.65.58-1.34.75-2.02.24-1.06.33-2.1.19-3.11-.02-1.17-.3-2.31-.85-3.42-2.34-5.03-7.54-7.07-13.31-4.88l-43.38,13.02h.05Z" style="fill: #a85e4d;"/>
              <path d="M1482.95,1108.83l-14.67-65.75-196.09,28.92s-2.85,26.92-2.85,49.76c0,42.06,33.55,56.3,77.6,44.97,35.79-9.21,136.01-57.9,136.01-57.9h0Z" style="fill: #a85e4d;"/>
              <path d="M1598.31,1054.12l-32.98,5.4,2.69.08,33.29-2.38s-.51-.89-.86-1.31c-.5-.6-2.15-1.78-2.15-1.78h.01Z" style="fill: #9f523b;"/>
              <path d="M1593.94,1072.82l-33.63,5.87,3.82-.54,32.56-3.48s-.89-.78-1.24-1c-.37-.24-1.51-.85-1.51-.85h0Z" style="fill: #9f523b;"/>
            </g>
          </g>
          <g>
            <circle cx="1487.28" cy="844.53" r="68.13" style="fill: #fff;"/>
            <g>
              <polygon points="1519.65 895.99 1536.95 923.49 1505.01 905.19 1519.65 895.99" style="fill: #fff;"/>
              <polygon points="1519.65 895.99 1536.95 923.49 1534.29 886.78 1519.65 895.99" style="fill: #fff;"/>
            </g>
            <path d="M1468.66,838.22v33.55c0,.28-.05.55-.16.81s-.26.49-.46.68c-.2.2-.43.35-.68.46-.26.11-.53.16-.81.16h-8.37c-.28,0-.55-.05-.81-.16s-.49-.26-.68-.46c-.2-.2-.35-.43-.46-.68-.11-.26-.16-.53-.16-.81v-33.55c0-.55.23-1.08.63-1.47.39-.39.93-.61,1.48-.61h8.34c.28,0,.55.05.81.15.26.1.49.25.69.45.2.19.36.42.47.68.11.25.17.53.17.8h0ZM1519.01,841.59c-.21-1.52-.96-2.91-2.12-3.91s-2.64-1.55-4.18-1.53h-16.9c1.42-3.97,2.13-8.15,2.11-12.37-.04-2.29-.98-4.47-2.62-6.07-1.64-1.6-3.84-2.49-6.13-2.49h-1.64c-.55,0-1.07.23-1.46.62s-.61.91-.62,1.46c0,4.85-1.89,13.6-5.44,17.15-2.07,1.95-4.48,3.51-7.11,4.59v31.47c5.51,2.18,11.38,3.33,17.31,3.4h13.75c1.06.08,2.13-.12,3.1-.57s1.81-1.14,2.44-2c.63-.86,1.03-1.87,1.16-2.93s0-2.14-.4-3.13c1.34-.36,2.52-1.15,3.36-2.25s1.3-2.44,1.3-3.83c0-.8-.16-1.59-.47-2.33,1.04-.27,2-.8,2.78-1.54s1.35-1.67,1.67-2.7c.32-1.03.36-2.12.14-3.17-.23-1.05-.72-2.03-1.43-2.84.59-.7,1.03-1.51,1.27-2.39s.29-1.8.15-2.71v.06h-.02Z" style="fill: #196cff;"/>
          </g>
        </g>
        <g>
          <g>
            <g>
              <path d="M1123.93,576.63c-5.67,155.87-63.21,135.65-140.95,134.61-77.8-1.05-128.26,12.11-128.23-143.43-2.73-52.75,34.13-127.89,122.17-127.89,127.72,0,147.15,80.05,147,136.72h.01Z" style="fill: #0e1638;"/>
              <circle cx="988.43" cy="653.73" r="122.01" transform="translate(-172.75 890.4) rotate(-45)" style="fill: #0e1638;"/>
              <path d="M1044.43,848.75l120.55,39.74v137.87l-184.7,104.84-175.73-104.84-5.49-137.88,129.34-39.73h0c1.3-4.19,2.72-8.81.93-43.72l-.93-36.46,116.03-4.22s-1.41,43.97-1.43,51.44c-.02,8.25,1.43,32.96,1.43,32.96h0Z" style="fill: #a85e4d;"/>
              <path d="M1097.42,579.8v70.43c-23.09,22.42-54.71,36.3-89.34,36.3-70.93,0-128.32-57.38-128.32-128.15,0-8.87.84-17.4,2.68-25.76,5.69,6.36,15.89,12.21,28.44,15.89,24.76,7.19,90.51-20.24,128.32-33.46h.17c32.79,3.51,58.05,31.12,58.05,64.74h0Z" style="fill: #0e1638;"/>
              <path d="M1039.2,515.06h.17c32.79,3.51,58.05,31.12,58.05,64.74v104.48c0,60.2-48.8,109-109,109h0c-60.2,0-109-48.8-109-109v-111.77c0-31.73,25.72-57.45,57.45-57.45h102.33Z" style="fill: #a85e4d;"/>
              <path d="M841.76,648.25c0,23.42,21.15,36.86,37.68,34.3,16.53-2.55,25.32-15.2,21.74-38.34s-11.89-32.94-27.88-37.85c-15.49-4.76-31.55,10.19-31.54,41.89Z" style="fill: #a85e4d;"/>
              <path d="M1132.78,651.81c-2.86,23.24-25.48,34-41.58,29.45s-23.27-18.17-16.9-40.71c6.37-22.53,15.82-31.24,32.29-34.17,15.95-2.83,30.07,13.96,26.19,45.43Z" style="fill: #a85e4d;"/>
              <path d="M859.56,633.09c-2.1,3.67-6.99,9.75-1.28,18.76l1.22,1.88h0l-.41-2.02c-5.13-8.08,2.15-16.86,2.97-17.15l15.4,9.12.44-.75-24.16-16.66c-.88-.56-2.26,2.02-1.48,2.49l7.3,4.31v.02Z" style="fill: #9f523b;"/>
              <path d="M874.49,606.74c2.19.67,2.52.97,4.43,1.85l.17,74.27-1.22-6.22c-.82-4.19-1.3-8.44-1.45-12.71l-1.24-36.7-.69-20.49Z" style="fill: #9f523b;"/>
              <path d="M1118.66,635.83c2.1,3.67,6.99,9.75,1.28,18.76l-1.22,1.88h0l.41-2.02c5.13-8.08-2.15-16.86-2.97-17.15l-15.4,9.12-.44-.75,24.16-16.66c.88-.56,2.26,2.02,1.48,2.49l-7.3,4.31v.02Z" style="fill: #9f523b;"/>
              <path d="M1104.17,606.86c-2.89.61-4.83,1.2-6.74,2.08v73.3l1.54-5.57c.82-4.19,1.7-8.43,1.84-12.69l2.69-37.37.67-19.74h0Z" style="fill: #9f523b;"/>
              <path d="M928.58,775.74l.19,6.33s68.43,35.19,114.27,28.75c-.45.06.53-25.17.96-32.76,0,0-49.78,28.47-115.42-2.32h0Z" style="fill: #9f523b;"/>
              <path d="M1097.29,654.16c-1.3-42.91-9.76-88.88-13.6-107.82-1.05-5.19-5.64-8.9-10.94-8.86l-172.42,1.45c-5.49.04-10.01,4.35-10.31,9.83-1.2,21.75-4.06,61.22-10.25,100.51l-2.99-84.84-1.68-25.29-3.24-18.78,110.15-62.6,123.52,77.66-8.24,118.74h0Z" style="fill: #0e1638;"/>
            </g>
            <path d="M1164.39,1500.92s-6.52-335.67-5.69-400.39c.7-54.35.58-191.11.58-191.11l-119.26-47.84-1.76,1.34c-12.63,14.21-29.92,19.27-55.42,21.19h0c-27.18-1.44-39.6-8.7-51.7-22.31l-2.4-2.24-114.21,38.3-30.09,578.57s49.93,56.49,178.32,56.51c180.93.03,201.63-32.03,201.63-32.03h0Z" style="fill: #d1d4ff;"/>
            <path d="M1047.16,877.76l-68.16,13.83-52.94-13.83-1.01-52.35c0-2.92-1.17-9.21,1.39-10.59.44-.24,3.01-1.96,3.26-1.95l.19,3.68c11.08,4.25,20.09,7.8,55.09,7.91,36.08.12,46.39-1.11,58.02-5.82v-4.28c.77-.03,2.5.53,3.95,1.48,2.22,1.47,3.54,6.34,3.19,10.52l-2.97,51.39h0Z" style="fill: #d1d4ff;"/>
            <path d="M929.53,1550.08s-159.37-.96-184.85-43.21c2.21-21.92,3.57-75.4,4.32-114.22v-.56c.47-23.51.7-49.18.76-75.91.41-158.99-5.05-355.3-5.05-355.3-.9-32.09,18.63-61.28,48.68-72.57,31.17-11.71,94.55-33.31,117.87-37.74,0,0,1.16-9.92,4.01-14.05,4.28-6.2,9.77-7.77,9.77-7.77,0,0,1.04,3.34,6.62,9.7,1.3,1.49,2.02,3.4,2.03,5.38l-4.15,706.26h-.01Z" style="fill: #969cf5;"/>
            <path d="M1056.81,839.89c-1.93-5.04-7.01-7.71-7.01-7.71,0,0-.58,3.94-5.66,10.15-1.52,1.86-1.91,4.22-1.81,6.62,7.85,176.5,22.08,701.13,22.08,701.13,0,0,138.8,6.6,164.17-22.38-32.12-155.35-19.35-566.24-19.35-566.24-1.46-36.41-14.22-61.68-44.26-72.98-31.17-11.7-82.68-32.47-105.99-36.91,0,0-.38-7-2.18-11.69h.01Z" style="fill: #969cf5;"/>
            <path d="M1248.32,1246.31c11.3,26.03-23.97,102.07-76.05,73.42l-166.42-105.22,43.37-87.82s185.26,87.74,199.09,119.62h.01Z" style="fill: #969cf5;"/>
            <path d="M709.38,1244.9c-11.3,26.03,23.97,102.07,76.05,73.42l166.42-105.22-43.37-87.82s-185.26,87.74-199.09,119.62h-.01Z" style="fill: #969cf5;"/>
            <path d="M851.62,867.9l-86.94,30.41c-15.57,6.97-34.12,28.04-35.99,51.39l-21.36,303.42,110.97-12.82,33.32-372.4h0Z" style="fill: #969cf5;"/>
            <g>
              <path d="M927.6,1157.52l10.16-40.31c1.71-6.8,8.62-10.93,15.43-9.22l2.38.6c6.8,1.71,10.93,8.62,9.22,15.43l-10.16,40.31-27.01-6.81h0Z" style="fill: #a85e4d;"/>
              <path d="M927.6,1157.52l10.16-40.31c1.71-6.8,8.62-10.93,15.43-9.22l2.38.6c6.8,1.71,10.93,8.62,9.22,15.43l-10.16,40.31-27.01-6.81h0Z" style="fill: #9f523b;"/>
              <rect x="936.52" y="1207.93" width="52.55" height="19.8" rx="9.03" ry="9.03" transform="translate(-348.69 387.12) rotate(-19.32)" style="fill: #a85e4d;"/>
              <rect x="936.52" y="1207.93" width="52.55" height="19.8" rx="9.03" ry="9.03" transform="translate(-348.69 387.12) rotate(-19.32)" style="fill: #9f523b;"/>
              <path d="M1057.25,1198.33s.17,13.44-8.16,19.59c-4.9,3.61-20.7,8.47-26.78,8.47-14.18,0-24.31-5.48-24.31-5.48l59.25-22.57h0Z" style="fill: #a85e4d;"/>
              <path d="M1057.25,1198.33s.17,13.44-8.16,19.59c-4.9,3.61-20.7,8.47-26.78,8.47-14.18,0-24.31-5.48-24.31-5.48,0,0,42.57,1.58,53.11-6.67,3.36-2.62,6.14-15.9,6.14-15.9h0Z" style="fill: #9f523b;"/>
              <path d="M954.57,1220.89h76.64c4.62,0,8.37-3.75,8.37-8.37l14.77-144.47c0-4.62-3.75-8.37-8.37-8.37l-99.6-.96c-4.62,0-8.37,3.75-8.37,8.37l8.19,145.43c0,4.62,3.75,8.37,8.37,8.37Z" style="fill: #0e1638;"/>
              <rect x="917.83" y="1138.5" width="51.23" height="27.86" rx="12.71" ry="12.71" transform="translate(-288.16 314.98) rotate(-16.48)" style="fill: #a85e4d;"/>
              <rect x="920.36" y="1164.52" width="54.28" height="27.86" rx="12.71" ry="12.71" transform="translate(-295.38 317.2) rotate(-16.48)" style="fill: #a85e4d;"/>
              <rect x="926.25" y="1190.19" width="48.26" height="27.86" rx="12.71" ry="12.71" transform="translate(-302.54 319.07) rotate(-16.48)" style="fill: #a85e4d;"/>
              <rect x="1032.09" y="1100.33" width="27.86" height="51.23" rx="12.71" ry="12.71" transform="translate(-360.33 1745.71) rotate(-70.89)" style="fill: #a85e4d;"/>
              <rect x="1007.31" y="1137.67" width="54.28" height="27.86" rx="12.71" ry="12.71" transform="translate(-47.7 44.71) rotate(-2.42)" style="fill: #a85e4d;"/>
              <rect x="1016.65" y="1164.12" width="42.21" height="27.86" rx="12.71" ry="12.71" transform="translate(-291.56 342.79) rotate(-16.48)" style="fill: #a85e4d;"/>
              <rect x="1011.65" y="1184.4" width="45.6" height="27.86" rx="12.71" ry="12.71" style="fill: #a85e4d;"/>
              <polygon points="1051.01 1100.66 1056.39 1114.81 1049.8 1112.53 1051.01 1100.66" style="fill: #a85e4d;"/>
              <polygon points="1051.01 1100.66 1056.39 1114.81 1049.8 1112.53 1051.01 1100.66" style="fill: #9f523b;"/>
              <polygon points="919.79 1162.12 925.76 1171.67 930.84 1168.92 919.79 1162.12" style="fill: #a85e4d;"/>
              <polygon points="922.86 1189.07 928.76 1199.72 933.06 1195.36 922.86 1189.07" style="fill: #a85e4d;"/>
              <polygon points="1057.87 1180.35 1052.62 1193 1048.56 1189.46 1057.87 1180.35" style="fill: #a85e4d;"/>
              <polygon points="1061.21 1154.2 1056.39 1168.68 1051.97 1164.28 1061.21 1154.2" style="fill: #a85e4d;"/>
              <polygon points="1069.46 1136.1 1061.36 1148.65 1059.36 1143.52 1069.46 1136.1" style="fill: #a85e4d;"/>
              <path d="M1057.87,1180.35c-.62,1.49-21.47.36-26.67,1.23-11.72,1.97-12.81,4.82-12.81,4.82,0,0,29.39-3.81,35.68,3.09l3.79-9.14h.01Z" style="fill: #9f523b;"/>
              <path d="M1056.39,1168.68l4.83-14.48c-2,3.37-31.1,8.7-47.53,9.64,6.81,4.03,14.15,1.31,16.65,1.95,0,0,20.01-6.15,26.06,2.89h-.01Z" style="fill: #9f523b;"/>
              <path d="M1061.36,1148.65l7.03-10.9s-23.05-2.79-31.67-.18c0,0,22.64-.78,24.64,11.08Z" style="fill: #9f523b;"/>
              <path d="M928.76,1199.72l-7.32-13.49s7.86,5.19,30.91,2.84c0,0-18.6,3.53-23.59,10.64h0Z" style="fill: #9f523b;"/>
              <path d="M925.76,1171.67l-6.92-11.91s7.15,8.31,29.63,3.94l-22.71,7.97Z" style="fill: #9f523b;"/>
            </g>
            <path d="M1126.99,874.01l66.03,25.72c15.57,6.97,32.09,25.5,35.35,42.25l22,312.57-110.97-12.82-12.41-367.72Z" style="fill: #969cf5;"/>
            <polygon points="1118.43 1161.42 1132.05 1023.91 1137.01 1171.02 1118.43 1161.42" style="fill: #8782e1;"/>
            <path d="M1209.73,1323.96l5.98,104.39c-9.03-68.15-159.97-182.29-159.97-182.29,0,0,109.5,82.94,153.99,77.9Z" style="fill: #8782e1;"/>
            <path d="M749.75,1322.5l-.74,70.15,182.44-167.25s-51.33,32.28-86.22,55.11c-35.98,23.54-69.4,51.99-95.47,41.99h-.01Z" style="fill: #8782e1;"/>
            <polygon points="839.86 1159.48 817.34 1171.02 828.94 1014.64 839.86 1159.48" style="fill: #8782e1;"/>
          </g>
          <g>
            <circle cx="1048.56" cy="963.59" r="68.13" style="fill: #fff;"/>
            <g>
              <polygon points="1020.7 1017.63 1005.81 1046.51 1005.33 1009.7 1020.7 1017.63" style="fill: #fff;"/>
              <polygon points="1020.7 1017.63 1005.81 1046.51 1036.07 1025.55 1020.7 1017.63" style="fill: #fff;"/>
            </g>
            <path d="M1083.73,953.56c-.17,6.35-2.66,12.42-6.99,17.07-5.36,5.91-11.18,11.38-17.42,16.36l-7.99,6.87c-.75.66-1.71,1.03-2.72,1.03s-1.97-.37-2.72-1.03l-7.99-6.87c-6.21-4.98-12.01-10.45-17.35-16.36-4.33-4.65-6.82-10.72-6.99-17.07-.07-5.47,1.91-10.78,5.56-14.86,1.76-1.95,3.91-3.51,6.3-4.58,2.4-1.07,4.99-1.64,7.62-1.66,4-.02,7.89,1.32,11.02,3.81,1.75,1.32,3.29,2.89,4.59,4.65,1.26-1.76,2.76-3.32,4.46-4.65,3.17-2.51,7.1-3.86,11.14-3.81,2.65,0,5.26.56,7.68,1.63,2.42,1.08,4.59,2.65,6.36,4.61,3.6,4.1,5.54,9.4,5.43,14.86h0Z" style="fill: #ff403d;"/>
          </g>
        </g>
      </g>
    </g>
  </g>
</svg>