<svg xmlns="http://www.w3.org/2000/svg" version="1.1" xmlns:xlink="http://www.w3.org/1999/xlink" width="1000" height="1000"><g clip-path="url(#SvgjsClipPath1226)"><rect width="1000" height="1000" fill="#fbe3f4"></rect><g transform="matrix(1.173035816693603,0,0,1.173035816693603,296.7011626088316,50)"><svg xmlns="http://www.w3.org/2000/svg" xmlns:xlink="http://www.w3.org/1999/xlink" viewBox="0 0 346.62 767.24" width="346.62" height="767.24"><defs>
    <linearGradient id="linear-gradient" x1="189.98" y1="114.69" x2="189.98" y2="605.99" gradientUnits="userSpaceOnUse">
      <stop offset="0" stop-color="#c02729"></stop>
      <stop offset=".11" stop-color="#c22d2f"></stop>
      <stop offset=".26" stop-color="#c73f43"></stop>
      <stop offset=".45" stop-color="#d15d63"></stop>
      <stop offset=".66" stop-color="#de868f"></stop>
      <stop offset=".88" stop-color="#efbac7"></stop>
      <stop offset="1" stop-color="#f9d9e8"></stop>
    </linearGradient>
  <clipPath id="SvgjsClipPath1226"><rect width="1000" height="1000" x="0" y="0" rx="100" ry="100"></rect></clipPath></defs><g id="Layer_5" data-name="Layer 5">
    <path d="M325.48,205.52l-47.82-52.55-75.68-29.96-63.07-5.32v-3l-65.17,2.8-23.12,10.51-7.71,124.03v347.56l26.45,6.39,59.56-1.75,15.77-7.71,2.45-74.98-2.72-95.82-.09-8.5,22.69,4.03,55.71-5.26,35.47-15.77,42.57-28.64,18.39-26.28,17.87-61.49-11.56-78.31ZM230.36,298.02l-11.56,12.09-21.02,6.83-38.89,3.68-15.62-2.26-4.35-90.15v-3.93l11.04-1.41h18.92l35.21,8.41,27.85,17.87s6.83,23.91,6.83,27.33-8.41,21.55-8.41,21.55Z" style="fill: url(#linear-gradient);"></path>
  </g><g id="Layer_2" data-name="Layer 2">
    <text transform="translate(0 612.8)" style="fill: #c02729; font-family: LondrinaSketch-Regular, 'Londrina Sketch'; font-size: 711.73px; letter-spacing: -.02em;"><tspan x="0" y="0">P</tspan></text>
  </g></svg></g></g></svg>